<svg width="244" height="89" viewBox="0 0 244 89" fill="none" xmlns="http://www.w3.org/2000/svg">
<path d="M64.2548 25.8293H77.0821V0.149414H51.4422V13.0411C51.4422 19.6348 46.4825 25.0605 40.091 25.7997H25.7875V38.6914C25.7875 45.7878 20.0455 51.5388 12.9602 51.5388H0.132812V77.2187H25.7727V64.327C25.7727 57.2306 31.5148 51.4796 38.6001 51.4796C45.6854 51.4796 51.4274 57.2306 51.4274 64.327V77.2187H77.0673V51.5388H64.24C57.1547 51.5388 51.4127 45.7878 51.4127 38.6914C51.4127 31.5951 57.1547 25.8441 64.24 25.8441L64.2548 25.8293Z" fill="#1450EF"/>
<path d="M91.0757 77.2039V42.417H102.604C105.158 42.417 107.519 42.7866 109.704 43.5406C111.874 44.2946 113.734 45.4034 115.299 46.867C116.848 48.3306 118.059 50.1491 118.945 52.3223C119.815 54.4956 120.258 56.9941 120.258 59.8178C120.258 62.6416 119.815 65.1253 118.945 67.3133C118.074 69.4866 116.848 71.305 115.299 72.7687C113.749 74.2323 111.889 75.3411 109.704 76.0951C107.534 76.8491 105.172 77.2187 102.604 77.2187H91.0757V77.2039ZM97.2163 71.9407H102.383C104.021 71.9407 105.556 71.7042 106.988 71.2311C108.405 70.758 109.66 70.0336 110.708 69.0579C111.771 68.0821 112.583 66.8403 113.173 65.3027C113.763 63.7652 114.044 61.9319 114.044 59.8178C114.044 57.7037 113.749 55.8705 113.173 54.3625C112.583 52.8398 111.771 51.5979 110.708 50.6074C109.645 49.6168 108.405 48.8924 106.988 48.4341C105.571 47.9758 104.036 47.754 102.383 47.754H97.2163V71.9555V71.9407Z" fill="#0E004B"/>
<path d="M137.44 78.8006C137.735 79.2441 138.119 79.7467 138.621 80.3085C139.108 80.8703 139.728 81.4026 140.481 81.8756C141.234 82.3487 142.09 82.7479 143.079 83.0879C144.068 83.4132 145.19 83.5758 146.474 83.5758C147.758 83.5758 148.688 83.4723 149.839 83.2506C150.991 83.0288 152.024 82.6148 152.939 82.0087C153.854 81.4026 154.607 80.5599 155.183 79.4511C155.773 78.357 156.054 76.9526 156.054 75.2228V70.1223C155.655 71.1868 155.109 72.1034 154.445 72.8869C153.766 73.6705 153.028 74.321 152.201 74.8384C151.375 75.3559 150.504 75.7255 149.574 75.962C148.644 76.1986 147.714 76.3168 146.813 76.3168C144.835 76.3168 143.035 75.9916 141.396 75.3263C139.758 74.661 138.341 73.7592 137.175 72.606C136.008 71.4529 135.108 70.078 134.458 68.4961C133.824 66.8994 133.499 65.1992 133.499 63.366C133.499 61.5328 133.824 59.8178 134.458 58.2064C135.093 56.5949 135.994 55.2052 137.145 54.0077C138.296 52.825 139.669 51.8788 141.278 51.184C142.887 50.4891 144.644 50.1343 146.533 50.1343C148.422 50.1343 148.452 50.2378 149.323 50.43C150.194 50.6369 151.035 50.9918 151.817 51.4944C152.6 52.0119 153.338 52.6771 154.032 53.4903C154.725 54.3182 155.404 55.3531 156.054 56.5949V50.7256H161.855V75.3559C161.855 77.9135 161.412 80.072 160.541 81.8017C159.67 83.5315 158.504 84.9359 157.058 86.0004C155.611 87.0648 153.973 87.804 152.127 88.2476C150.282 88.6911 148.378 88.9128 146.4 88.9128C144.422 88.9128 143.315 88.7354 141.957 88.3954C140.599 88.0406 139.389 87.5823 138.282 86.9909C137.189 86.3996 136.245 85.7343 135.462 84.9951C134.68 84.2411 134.045 83.428 133.573 82.5557L137.411 78.771L137.44 78.8006ZM150.873 70.758C151.862 70.4476 152.747 70.0041 153.53 69.4423C154.312 68.8805 154.932 68.1856 155.39 67.3873C155.847 66.5889 156.069 65.6723 156.069 64.6374V61.9467C156.069 60.9266 155.847 59.9952 155.39 59.1821C154.932 58.3542 154.327 57.6594 153.559 57.0976C152.792 56.5358 151.906 56.0775 150.902 55.7522C149.899 55.427 148.836 55.2643 147.699 55.2643C146.563 55.2643 145.441 55.4565 144.407 55.8409C143.389 56.2253 142.503 56.7723 141.75 57.4524C140.998 58.1472 140.422 58.9899 140.023 59.9805C139.625 60.971 139.418 62.0502 139.418 63.2182C139.418 64.3861 139.625 65.5836 140.053 66.5594C140.466 67.5499 141.057 68.3926 141.809 69.0874C142.562 69.7823 143.448 70.3145 144.466 70.6841C145.485 71.0537 146.577 71.2311 147.758 71.2311C148.939 71.2311 149.899 71.0685 150.888 70.758H150.873Z" fill="#0E004B"/>
<path d="M170.475 50.696C171.346 50.696 172.04 50.9473 172.527 51.4647C173.014 51.9822 173.265 52.6327 173.265 53.4458V77.2038H167.508V50.696H170.461H170.475ZM173.103 46.6452H167.508V41.042H173.103V46.6452Z" fill="#0E004B"/>
<path d="M224.707 77.2038C223.217 77.2038 222.139 76.8342 221.475 76.0802C220.811 75.3262 220.486 74.3949 220.486 73.2565V70.8467C220.191 72.0146 219.718 73.0347 219.054 73.8922C218.39 74.7497 217.607 75.4593 216.692 76.0359C215.777 76.5977 214.788 77.0264 213.74 77.3221C212.677 77.6178 211.6 77.7656 210.507 77.7656C209.415 77.7656 208.101 77.6178 206.92 77.3221C205.74 77.0264 204.677 76.5681 203.747 75.9176C202.817 75.2819 202.064 74.4688 201.503 73.5078C200.942 72.5321 200.647 71.3641 200.647 69.9744C200.647 68.5847 200.942 67.402 201.547 66.441C202.153 65.4653 202.92 64.6669 203.88 64.0312C204.824 63.3955 205.902 62.8781 207.112 62.4937C208.323 62.1093 209.518 61.8284 210.729 61.6362L220.486 60.2613V58.7238C220.486 57.9254 220.279 57.2749 219.851 56.7723C219.438 56.2844 218.906 55.9 218.257 55.6191C217.622 55.3382 216.928 55.146 216.176 55.0425C215.423 54.939 214.729 54.8799 214.065 54.8799C212.352 54.8799 210.891 55.2052 209.71 55.8409C208.529 56.4766 207.836 57.7776 207.658 59.7143L202.285 59.2264C202.285 57.615 202.625 56.24 203.304 55.1164C203.983 53.9781 204.869 53.0467 205.961 52.3223C207.053 51.5978 208.308 51.0508 209.71 50.7108C211.113 50.3708 212.574 50.1934 214.065 50.1934C215.556 50.1934 217.209 50.356 218.67 50.6665C220.132 50.9769 221.416 51.4796 222.508 52.1744C223.6 52.8693 224.471 53.7563 225.106 54.8355C225.741 55.9148 226.065 57.201 226.065 58.709V72.4877H228.427V77.263H224.707V77.2038ZM211.614 65.4061C211.024 65.5096 210.434 65.687 209.814 65.894C209.194 66.1158 208.633 66.3819 208.146 66.7219C207.658 67.0472 207.26 67.4611 206.965 67.949C206.669 68.4369 206.522 68.9987 206.522 69.6196C206.551 70.2405 206.743 70.758 207.068 71.1867C207.393 71.6007 207.821 71.9407 208.323 72.2068C208.839 72.4581 209.385 72.6208 209.991 72.6947C210.596 72.7686 211.186 72.7834 211.777 72.7538C212.795 72.7243 213.829 72.5616 214.847 72.2807C215.866 71.9998 216.796 71.6007 217.637 71.0389C218.478 70.4919 219.157 69.7822 219.689 68.9248C220.22 68.0673 220.486 67.0472 220.486 65.8792V63.9573L211.614 65.3914V65.4061Z" fill="#0E004B"/>
<path d="M239.276 40.1108V72.4879H243.882V77.6476H240.325C238.347 77.6032 236.723 77.071 235.453 76.0361C234.169 74.9864 233.534 73.3602 233.534 71.1278V40.1256H239.291L239.276 40.1108Z" fill="#0E004B"/>
<path d="M91.0757 34.8772V0.090332H106.191C107.977 0.090332 109.704 0.297307 111.343 0.696477C112.981 1.09565 114.442 1.74614 115.727 2.6184C117.011 3.49066 118.029 4.67339 118.826 6.15179C119.609 7.6302 120.007 9.44864 120.007 11.6071C120.007 13.7656 119.624 15.6727 118.856 17.2103C118.088 18.7478 117.07 19.9749 115.815 20.9211C114.56 21.8525 113.099 22.5325 111.461 22.976C109.822 23.4196 108.125 23.6413 106.368 23.6413H97.2163V34.892H91.0757V34.8772ZM97.2163 18.6887H106.043C107.032 18.6887 107.992 18.5852 108.922 18.393C109.852 18.186 110.678 17.8164 111.416 17.2694C112.14 16.7224 112.73 15.998 113.173 15.0961C113.616 14.1943 113.837 13.0707 113.837 11.7254C113.837 10.38 113.616 9.22688 113.158 8.38418C112.701 7.54149 112.095 6.90578 111.328 6.46226C110.56 6.01874 109.719 5.73784 108.804 5.60478C107.889 5.47173 106.973 5.41259 106.058 5.41259H97.231V18.6887H97.2163Z" fill="#0E004B"/>
<path d="M122.9 21.6454C122.9 19.7383 123.225 17.9494 123.889 16.264C124.554 14.5786 125.498 13.115 126.738 11.8731C127.978 10.6313 129.469 9.62597 131.196 8.88677C132.938 8.13278 134.857 7.76318 136.982 7.76318C139.108 7.76318 141.071 8.13278 142.784 8.88677C144.496 9.64075 145.972 10.6461 147.197 11.9027C148.422 13.1594 149.367 14.6378 150.016 16.3231C150.681 18.0085 151.005 19.7974 151.005 21.7045C151.005 23.6117 150.651 25.504 149.943 27.1894C149.234 28.8748 148.245 30.3236 146.99 31.5507C145.736 32.7778 144.245 33.724 142.547 34.404C140.85 35.0841 138.99 35.4241 136.982 35.4241C134.975 35.4241 133.115 35.0841 131.388 34.404C129.676 33.724 128.185 32.7778 126.93 31.5507C125.675 30.3236 124.686 28.8748 123.978 27.1894C123.269 25.504 122.915 23.656 122.915 21.6454H122.9ZM136.982 30.1019C138.222 30.1019 139.359 29.8801 140.377 29.4366C141.396 28.9931 142.267 28.4017 142.975 27.6477C143.684 26.8937 144.23 26.0067 144.614 24.957C144.998 23.9074 145.19 22.7838 145.19 21.5863C145.19 20.3888 144.998 19.3095 144.614 18.2599C144.23 17.2102 143.684 16.3231 142.975 15.5692C142.267 14.8152 141.396 14.2238 140.377 13.7803C139.359 13.3368 138.222 13.115 136.982 13.115C135.742 13.115 134.606 13.3368 133.587 13.7803C132.569 14.2238 131.698 14.8152 130.989 15.5692C130.281 16.3231 129.72 17.2102 129.321 18.2599C128.923 19.3095 128.716 20.4035 128.716 21.5863C128.716 22.769 128.923 23.9074 129.321 24.9275C129.72 25.9476 130.281 26.8494 130.989 27.6182C131.698 28.3869 132.569 28.9931 133.587 29.4218C134.606 29.8653 135.742 30.0871 136.982 30.0871V30.1019Z" fill="#0E004B"/>
<path d="M158.357 8.26571C159.523 8.26571 160.453 8.62052 161.146 9.31537C161.84 10.0102 162.194 10.9416 162.194 12.1096V12.4939C163.036 11.2817 164.054 10.2468 165.265 9.35973C166.475 8.48747 167.7 8.04395 168.94 8.04395H173.118V13.3662H168.453C167.435 13.3662 166.534 13.5436 165.767 13.9132C164.999 14.2828 164.364 14.8003 163.877 15.4803C163.39 16.1604 163.006 17.0031 162.755 18.0084C162.504 19.0137 162.372 20.1373 162.372 21.3792V34.877H156.615V13.4845H154.253V8.26571H158.357Z" fill="#0E004B"/>
<path d="M199.982 21.6454C199.982 19.7383 200.307 17.9494 200.971 16.264C201.636 14.5786 202.58 13.115 203.82 11.8731C205.06 10.6313 206.551 9.62597 208.278 8.88677C210.02 8.13278 211.939 7.76318 214.064 7.76318C216.19 7.76318 218.153 8.13278 219.866 8.88677C221.578 9.64075 223.054 10.6461 224.279 11.9027C225.504 13.1594 226.449 14.6378 227.098 16.3231C227.763 18.0085 228.087 19.7974 228.087 21.7045C228.087 23.6117 227.733 25.504 227.025 27.1894C226.316 28.8748 225.327 30.3236 224.072 31.5507C222.818 32.7778 221.327 33.724 219.629 34.404C217.932 35.0841 216.072 35.4241 214.064 35.4241C212.057 35.4241 210.197 35.0841 208.47 34.404C206.758 33.724 205.267 32.7778 204.012 31.5507C202.757 30.3236 201.768 28.8748 201.06 27.1894C200.351 25.504 199.997 23.656 199.997 21.6454H199.982ZM214.064 30.1019C215.304 30.1019 216.441 29.8801 217.459 29.4366C218.478 28.9931 219.349 28.4017 220.057 27.6477C220.766 26.8937 221.312 26.0067 221.696 24.957C222.08 23.9074 222.272 22.7838 222.272 21.5863C222.272 20.3888 222.08 19.3095 221.696 18.2599C221.312 17.2102 220.766 16.3231 220.057 15.5692C219.349 14.8152 218.478 14.2238 217.459 13.7803C216.441 13.3368 215.304 13.115 214.064 13.115C212.825 13.115 211.688 13.3368 210.669 13.7803C209.651 14.2238 208.78 14.8152 208.071 15.5692C207.363 16.3231 206.802 17.2102 206.403 18.2599C206.005 19.3095 205.798 20.4035 205.798 21.5863C205.798 22.769 206.005 23.9074 206.403 24.9275C206.802 25.9476 207.363 26.8494 208.071 27.6182C208.78 28.3869 209.651 28.9931 210.669 29.4218C211.688 29.8653 212.825 30.0871 214.064 30.0871V30.1019Z" fill="#0E004B"/>
<path d="M126.798 50.6963C127.668 50.6963 128.362 50.9476 128.849 51.4651C129.336 51.9825 129.587 52.633 129.587 53.4461V77.2041H123.831V50.6963H126.783H126.798Z" fill="#0E004B"/>
<path d="M129.44 41.042H123.845V46.6452H129.44V41.042Z" fill="#0E004B"/>
<path d="M177.531 50.3708C178.845 50.3708 179.996 50.0603 180.985 49.4394C181.974 48.8185 182.594 47.7984 182.845 46.3643L183.834 42.417H188.484L186.845 50.5926H196.322V55.5304H187.775V72.7539H197.37V77.7509L188.661 77.81C186.727 77.7805 185.118 77.2039 183.834 76.1099C182.55 75.0158 181.915 73.3305 181.915 71.0685V55.5452H176.66V50.3856H177.531V50.3708Z" fill="#0E004B"/>
<path d="M177.531 8.04415C178.845 8.04415 179.996 7.73369 180.985 7.11275C181.974 6.49182 182.594 5.47173 182.845 4.03767L183.834 0.090332H188.484L186.845 8.26591H196.322V13.2038H187.775V30.4272H197.37V35.4242L188.661 35.4834C186.727 35.4538 185.118 34.8772 183.834 33.7832C182.55 32.6892 181.915 31.0038 181.915 28.7418V13.2186H176.66V8.05894H177.531V8.04415Z" fill="#0E004B"/>
</svg>
