<svg width="165" height="90" viewBox="0 0 165 90" fill="none" xmlns="http://www.w3.org/2000/svg">
<g clip-path="url(#clip0_117_797)">
<path opacity="0.997" fill-rule="evenodd" clip-rule="evenodd" d="M63.3857 0.0258789C80.7748 0.0258789 98.1634 0.0258789 115.552 0.0258789C114.918 3.23036 114.274 6.43287 113.619 9.63338C96.2298 9.67358 78.8412 9.68696 61.4521 9.67358C62.0914 6.45663 62.736 3.24074 63.3857 0.0258789Z" fill="#1D66C3"/>
<path opacity="0.997" fill-rule="evenodd" clip-rule="evenodd" d="M60.2031 14.9395C77.5922 14.9395 94.9808 14.9395 112.37 14.9395C111.746 18.1461 111.101 21.3486 110.436 24.547C93.0472 24.5871 75.6586 24.6005 58.2695 24.5871C58.9088 21.3702 59.5534 18.1543 60.2031 14.9395Z" fill="#1D66C3"/>
<path opacity="0.996" fill-rule="evenodd" clip-rule="evenodd" d="M57.1016 30.2955C62.4189 30.2888 67.7363 30.2955 73.0537 30.3156C74.6066 30.4302 76.0302 30.9126 77.3237 31.7627C79.0201 33.0745 79.6984 34.7964 79.358 36.9283C78.9733 39.2725 77.7717 41.0611 75.7527 42.2948C74.4862 43.02 73.1431 43.5558 71.7244 43.9028C73.154 44.1275 74.4564 44.6501 75.6318 45.4705C76.5451 46.2138 77.0889 47.1721 77.2633 48.3447C77.5078 51.0565 76.6889 53.3881 74.806 55.3393C72.9329 57.1917 70.6706 58.2167 68.0183 58.4145C67.1079 58.519 66.1951 58.5858 65.2791 58.6155C60.5389 58.6356 55.7992 58.6424 51.0591 58.6356C53.0527 49.1845 55.0669 39.7377 57.1016 30.2955ZM63.7886 35.3605C65.4269 35.3538 67.0648 35.3605 68.7031 35.3806C70.505 35.4898 71.3175 36.4345 71.1403 38.2146C70.6746 40.6024 69.2175 41.7348 66.7695 41.6114C65.3326 41.6448 63.8957 41.6384 62.4592 41.5913C62.9177 39.5176 63.3608 37.4406 63.7886 35.3605ZM61.3716 46.6966C62.9293 46.6897 64.4867 46.6966 66.0444 46.7167C68.9891 46.9096 69.9088 48.3769 68.8038 51.1184C68.1843 52.3248 67.1973 53.0419 65.843 53.2691C65.5099 53.3318 65.1743 53.372 64.8359 53.3897C63.2113 53.4098 61.5863 53.4166 59.9617 53.4098C60.4366 51.1731 60.9067 48.9352 61.3716 46.6966Z" fill="#1D65C4"/>
<path opacity="0.994" fill-rule="evenodd" clip-rule="evenodd" d="M-0.0200195 52.5654C-0.0200195 52.0296 -0.0200195 51.4933 -0.0200195 50.9575C0.0598528 50.4401 0.140419 49.9175 0.22168 49.3897C2.86694 49.3897 5.51219 49.3897 8.15747 49.3897C7.5672 51.8913 8.54741 53.2781 11.0981 53.5503C12.3116 53.6801 13.4932 53.5463 14.6431 53.1483C16.0672 52.5256 16.8326 51.4338 16.9392 49.8721C16.8974 49.1385 16.5483 48.609 15.8918 48.2842C15.6193 48.1532 15.3373 48.0463 15.0459 47.9626C12.6137 47.3259 10.1833 46.6827 7.75464 46.0331C3.29302 44.6253 1.87639 41.7246 3.50476 37.3301C4.14168 35.784 5.1152 34.491 6.42529 33.4509C8.39615 31.9258 10.6251 30.9811 13.1123 30.6169C15.1995 30.3157 17.2942 30.2554 19.3965 30.436C20.6685 30.5398 21.9038 30.8078 23.1025 31.24C26.0131 32.4179 27.2283 34.5685 26.7482 37.6919C26.6873 38.1234 26.6134 38.5522 26.5266 38.9782C23.8679 38.9782 21.2092 38.9782 18.5505 38.9782C18.5896 38.696 18.6366 38.4146 18.6915 38.1341C18.8878 36.5342 18.1962 35.5896 16.6169 35.3C15.0932 35.0472 13.7101 35.3687 12.4678 36.2648C11.5974 36.9942 11.2147 37.9254 11.3197 39.0586C11.4265 39.4736 11.648 39.8152 11.9844 40.0837C12.2553 40.2859 12.5507 40.4467 12.8706 40.5661C15.0003 41.161 17.1353 41.7371 19.2756 42.2946C20.5989 42.6407 21.8611 43.1368 23.0623 43.782C24.5621 44.7648 25.314 46.1585 25.3181 47.9626C25.13 51.8249 23.3575 54.6923 20.0007 56.5652C17.4353 57.8716 14.7095 58.555 11.8232 58.6153C9.85964 58.7122 7.91263 58.5779 5.98218 58.2133C4.50523 57.9384 3.17587 57.3486 1.99414 56.4446C0.81601 55.4131 0.144624 54.1199 -0.0200195 52.5654Z" fill="#1D65C4"/>
<path opacity="0.996" fill-rule="evenodd" clip-rule="evenodd" d="M32.1663 30.376C39.3635 30.376 46.5607 30.376 53.7581 30.376C53.3883 32.1863 53.0124 33.9952 52.6301 35.8028C48.0648 35.8028 43.4991 35.8028 38.9338 35.8028C38.5073 37.7569 38.091 39.7133 37.6851 41.6718C41.9684 41.6718 46.2521 41.6718 50.5354 41.6718C50.1511 43.482 49.7616 45.2909 49.3672 47.0986C45.0702 47.0854 40.7732 47.0986 36.4766 47.1388C36.0493 49.1303 35.6196 51.1201 35.1875 53.1084C39.8604 53.1152 44.5332 53.1353 49.2061 53.1687C48.8032 54.9776 48.4004 56.7865 47.9976 58.5955C40.693 58.649 33.3882 58.649 26.0835 58.5955C28.1214 49.191 30.149 39.7846 32.1663 30.376Z" fill="#1D65C4"/>
<path opacity="0.995" fill-rule="evenodd" clip-rule="evenodd" d="M84.2927 30.3761C89.5968 30.3693 94.9005 30.3761 100.205 30.3962C101.639 30.3555 103.022 30.5967 104.354 31.1197C106.025 31.9594 106.931 33.3195 107.073 35.1999C107.177 40.2541 104.753 43.3028 99.8018 44.3451C99.3615 44.4412 98.9183 44.5216 98.4724 44.5863C98.4156 44.6012 98.3753 44.6345 98.3516 44.6868C99.2378 44.7278 100.11 44.8548 100.97 45.0687C102.49 45.4687 103.316 46.4535 103.447 48.0233C103.488 48.4241 103.509 48.8261 103.508 49.2293C103.417 51.1861 103.316 53.1422 103.206 55.0983C103.167 56.2387 103.181 57.3775 103.246 58.5152C109.037 49.1959 114.817 39.8697 120.588 30.5368C123.851 30.4966 127.114 30.4833 130.377 30.4966C132.107 39.8792 133.852 49.259 135.614 58.6358C132.606 58.649 129.598 58.6358 126.59 58.5956C126.325 56.7348 126.07 54.8724 125.825 53.0079C121.998 52.9947 118.171 53.0079 114.344 53.0481C113.291 54.9009 112.244 56.7565 111.202 58.6157C105.656 58.6358 100.111 58.6426 94.5649 58.6358C94.5569 57.8981 94.577 57.1609 94.6254 56.4248C94.8147 54.2814 94.996 52.1376 95.1692 49.993C95.1922 49.4315 95.0649 48.9089 94.7865 48.4253C94.5251 48.1105 94.1959 47.9027 93.7996 47.8022C93.4543 47.7226 93.1055 47.6687 92.7522 47.6414C92.0674 47.6346 91.3826 47.6281 90.6978 47.6213C89.9972 47.6217 89.306 47.6482 88.6232 47.7017C87.83 51.3453 87.0445 54.9901 86.2666 58.6358C83.5809 58.649 80.8952 58.6358 78.21 58.5956C80.2503 49.1915 82.2778 39.7851 84.2927 30.3761ZM91.2214 35.6019C92.7663 35.5868 94.3104 35.6069 95.854 35.6622C96.4333 35.6915 96.9972 35.7987 97.5459 35.9838C98.4728 36.3788 98.9425 37.0822 98.9558 38.0942C98.7649 40.9584 97.2341 42.412 94.3635 42.4558C92.8328 42.4759 91.302 42.4827 89.7712 42.4759C90.2546 40.1845 90.738 37.8932 91.2214 35.6019ZM123.851 36.0441C123.891 36.0441 123.931 36.0441 123.972 36.0441C124.342 39.9573 124.718 43.87 125.1 47.7821C122.521 47.7889 119.943 47.7821 117.365 47.762C119.554 43.87 121.715 39.964 123.851 36.0441Z" fill="#1D65C4"/>
<path opacity="0.996" fill-rule="evenodd" clip-rule="evenodd" d="M164.98 30.376C164.98 30.443 164.98 30.51 164.98 30.577C164.592 32.3117 164.216 34.0536 163.852 35.8028C159.287 35.8028 154.721 35.8028 150.156 35.8028C149.739 37.7591 149.323 39.7154 148.907 41.6718C153.19 41.6718 157.474 41.6718 161.757 41.6718C161.388 43.4715 160.999 45.2672 160.589 47.0585C156.292 47.0986 151.995 47.1119 147.698 47.0986C147.272 49.1066 146.856 51.1165 146.449 53.1285C151.109 53.1285 155.768 53.1285 160.428 53.1285C160.038 54.9611 159.635 56.7902 159.219 58.6156C151.915 58.6425 144.61 58.6425 137.305 58.6156C139.351 49.2071 141.378 39.7939 143.388 30.376C150.585 30.376 157.782 30.376 164.98 30.376Z" fill="#1D65C4"/>
<path opacity="0.997" fill-rule="evenodd" clip-rule="evenodd" d="M49.77 64.4644C67.1591 64.4644 84.5477 64.4644 101.937 64.4644C101.303 67.669 100.658 70.8712 100.003 74.0719C82.6141 74.1121 65.2255 74.1253 47.8364 74.1121C48.4757 70.8949 49.1203 67.679 49.77 64.4644Z" fill="#1D66C3"/>
<path opacity="0.997" fill-rule="evenodd" clip-rule="evenodd" d="M96.8206 89.0256C79.4315 89.0256 62.0429 89.0256 44.6538 89.0256C45.2931 85.8085 45.9376 82.5926 46.5874 79.3779C63.9765 79.3779 81.3651 79.3779 98.7542 79.3779C98.1249 82.597 97.4804 85.8129 96.8206 89.0256Z" fill="#1D66C3"/>
</g>
<defs>
<clipPath id="clip0_117_797">
<rect width="165" height="89" fill="white" transform="translate(0 0.0458984)"/>
</clipPath>
</defs>
</svg>
