<svg width="1512" height="443" viewBox="0 0 1512 443" fill="none" xmlns="http://www.w3.org/2000/svg">
<path d="M140.062 2.98041C140.062 4.56992 140.062 6.25876 140.062 6.65613C139.963 7.15286 141.652 7.64957 143.738 7.9476C147.116 8.44434 147.414 8.64301 147.414 11.9214C147.414 15.1997 147.215 15.3984 143.837 15.6965C140.559 15.9945 140.261 16.2925 139.864 19.4716C139.367 23.644 139.566 23.8427 143.937 23.8427C147.414 23.8427 147.513 23.942 147.513 27.5184C147.513 31.1942 147.612 31.2935 151.189 31.5916L154.865 31.8896L155.163 39.5391L155.461 47.1886L159.236 47.4866L162.911 47.7847V39.8371V31.7902H166.885H170.859V43.8109V55.8315L167.183 55.4342C163.508 55.1361 163.408 55.2355 162.911 59.1099C162.415 62.885 162.216 63.0837 158.938 63.0837H155.461L155.163 74.7069L154.865 86.4296H150.891H146.818L147.215 82.6545C147.513 78.9788 147.513 78.9788 143.539 78.6807C139.665 78.3827 139.566 78.2834 139.665 74.7069C139.764 71.2299 139.963 71.0312 143.639 70.5345L147.513 70.0378V55.1361V40.2345L143.539 39.7378C139.665 39.2411 139.566 39.1417 139.864 35.466L140.261 31.7902H128.24H116.22V27.8165V23.8427H112.246H108.272V19.8689V15.8951H96.3508H84.4295V19.8689V23.8427H56.6131H28.7967V31.7902V39.7378H24.823H20.8492V43.7115V47.6853H16.8754H12.8023L13.1003 55.2355L13.3984 62.885L17.1734 62.9843L20.8492 63.0837V55.3348V47.6853H24.7236C28.598 47.6853 28.6974 47.7847 28.9954 51.3611C29.2934 54.9374 29.4921 55.1361 32.9692 55.4342C36.4462 55.7322 36.6449 55.9309 36.943 59.4079C37.241 62.9843 37.3403 63.0837 41.0161 62.7856L44.6918 62.3883V74.4089V86.4296H48.6656H52.54L52.838 78.6807L53.1361 71.0312H64.5607H75.9852L76.2833 74.7069L76.5813 78.482H72.6075H68.5344V82.4558V86.4296H72.5082H76.482V82.4558V78.482H80.4557H84.4295V74.5083V70.4352L92.1784 70.7332L99.8279 71.0312L100.126 74.7069C100.424 78.184 100.623 78.3827 104.1 78.6807L107.775 78.9788L108.073 86.6283L108.371 94.3771H112.246C116.22 94.3771 116.22 94.3771 116.22 98.3509V102.325H120.293H124.267L123.969 98.5496C123.67 95.0725 123.472 94.8738 119.995 94.5758L116.22 94.2778V86.3302V78.3827L123.969 78.6807L131.618 78.9788L131.916 86.6283L132.214 94.2778L135.89 94.5758C139.367 94.8738 139.566 95.0725 139.864 98.5496L140.162 102.325H136.188H132.115V106.298V110.272H124.167H116.22V114.246V118.22H84.4295H52.6393V114.246V110.272H44.6918H36.7443V102.225V94.2778L33.0685 94.5758C29.4921 94.8738 29.2934 95.0725 28.9954 98.5496C28.6974 102.225 28.598 102.325 24.7236 102.325H20.8492V94.3771V86.4296H16.8754H12.9016V82.3565V78.3827L9.2259 78.6807C5.64951 78.9788 5.45082 79.1775 5.15279 82.6545L4.85475 86.4296H8.82852H12.9016V94.3771V102.325H5.45082H-2V272.203V442.082H755.5H1513V272.203V102.325H1505.55H1498.1V94.3771V86.4296H1502.17H1506.15L1505.85 82.6545C1505.55 79.1775 1505.35 78.9788 1501.87 78.6807L1498.1 78.3827V82.3565V86.4296H1494.12H1490.15V94.3771V102.325H1486.28C1482.4 102.325 1482.3 102.225 1482 98.5496C1481.71 95.0725 1481.51 94.8738 1478.03 94.5758L1474.26 94.2778V102.225V110.272H1466.31H1458.36V114.246V118.22H1426.57H1394.78V114.246V110.272H1386.83H1378.89V106.298V102.325H1374.81H1370.84L1371.14 98.5496C1371.43 95.0725 1371.63 94.8738 1375.11 94.5758L1378.79 94.2778L1379.08 86.6283L1379.38 78.9788L1387.13 78.6807L1394.78 78.3827V86.3302V94.2778L1391.1 94.5758C1387.53 94.8738 1387.33 95.0725 1387.03 98.5496L1386.73 102.325H1390.71H1394.78V98.3509C1394.78 94.3771 1394.78 94.3771 1398.75 94.3771H1402.63L1402.93 86.6283L1403.22 78.9788L1406.9 78.6807C1410.38 78.3827 1410.58 78.184 1410.87 74.7069L1411.17 71.0312L1418.92 70.7332L1426.57 70.4352V74.5083V78.482H1430.54H1434.52V82.4558V86.4296H1438.49H1442.47V82.4558V78.482H1438.39H1434.42L1434.72 74.7069L1435.01 71.0312H1446.44H1457.86L1458.16 78.6807L1458.46 86.4296H1462.33H1466.31V74.4089V62.3883L1470.08 62.7856C1473.66 63.0837 1473.76 62.9843 1474.06 59.4079C1474.36 55.9309 1474.55 55.7322 1478.03 55.4342C1481.51 55.1361 1481.71 54.9374 1482 51.3611C1482.3 47.7847 1482.4 47.6853 1486.28 47.6853H1490.15V55.3348V63.0837L1493.83 62.9843L1497.6 62.885L1497.9 55.2355L1498.2 47.6853H1494.12H1490.15V43.7115V39.7378H1486.18H1482.2V31.7902V23.8427H1454.39H1426.57V19.8689V15.8951H1414.65H1402.73V19.8689V23.8427H1398.75H1394.78V27.8165V31.7902H1382.76H1370.74L1371.14 35.466C1371.43 39.1417 1371.34 39.2411 1367.46 39.7378L1363.49 40.2345V55.1361V70.0378L1367.36 70.5345C1371.04 71.0312 1371.24 71.2299 1371.34 74.7069C1371.43 78.2834 1371.34 78.3827 1367.46 78.6807C1363.49 78.9788 1363.49 78.9788 1363.78 82.6545L1364.18 86.4296H1360.11H1356.14L1355.84 74.7069L1355.54 63.0837H1352.06C1348.78 63.0837 1348.59 62.885 1348.09 59.1099C1347.59 55.2355 1347.49 55.1361 1343.92 55.4342L1340.14 55.8315V43.8109V31.7902H1344.11H1348.09V39.8371V47.7847L1351.86 47.4866L1355.54 47.1886L1355.84 39.5391L1356.14 31.8896L1359.81 31.5916C1363.39 31.2935 1363.49 31.1942 1363.49 27.5184C1363.49 23.942 1363.59 23.8427 1367.06 23.8427C1371.43 23.8427 1371.63 23.644 1371.14 19.4716C1370.74 16.2925 1370.44 15.9945 1367.16 15.6965C1363.78 15.3984 1363.59 15.1997 1363.59 11.9214C1363.59 8.64301 1363.88 8.44434 1367.26 7.9476C1369.35 7.64957 1371.04 7.15286 1370.94 6.65613C1370.94 6.25876 1370.94 4.56992 1370.94 2.98041V6.10352e-05H1327.72H1284.51V3.97385V7.9476H1280.53H1276.56V11.9214V15.8951H1272.59H1268.61V19.8689V23.8427H1248.74H1228.88V27.8165V31.7902H1220.93H1212.88L1213.18 39.4397L1213.48 47.1886L1217.25 47.4866C1220.83 47.7847 1220.93 47.884 1220.93 51.7584V55.8315L1217.25 55.4342L1213.48 55.1361L1213.18 62.885L1212.88 70.5345H1216.95H1220.93V63.183V55.8315L1224.9 55.4342L1228.78 55.1361L1229.07 59.0106C1229.37 62.7856 1229.47 62.885 1233.05 62.9843C1236.62 63.0837 1236.72 62.9843 1237.02 59.3086C1237.22 57.3217 1237.62 55.6328 1238.11 55.6328C1238.51 55.6328 1245.47 55.6328 1253.61 55.6328H1268.51L1268.81 59.2093L1269.11 62.7856H1276.56H1284.01L1284.51 59.1099L1285 55.4342H1296.43H1307.85L1308.35 59.2093C1308.85 62.6863 1309.05 62.9843 1312.32 62.9843C1315.6 62.9843 1315.8 62.7856 1316.1 59.3086L1316.4 55.6328H1323.35C1327.13 55.6328 1330.5 55.5335 1331 55.3348C1331.4 55.2355 1331.9 56.9243 1332.19 59.1099C1332.69 62.885 1332.89 63.0837 1336.17 63.0837H1339.64L1339.94 70.7332L1340.24 78.3827L1343.92 78.6807C1347.39 78.9788 1347.59 79.1775 1347.89 82.6545L1348.19 86.4296H1340.24H1332.29L1331.99 82.6545C1331.7 79.1775 1331.5 78.9788 1328.02 78.6807C1324.54 78.3827 1324.35 78.184 1324.05 74.7069L1323.75 71.0312H1304.38H1285L1284.71 74.7069L1284.41 78.482L1256.89 78.6807L1229.37 78.9788L1229.07 82.6545C1228.78 86.1315 1228.58 86.3302 1225.1 86.6283C1221.62 86.9263 1221.42 87.125 1221.13 90.6021L1220.83 94.3771H1213.58C1209.6 94.3771 1206.13 94.5758 1205.93 94.7745C1205.73 94.9732 1205.63 98.5496 1205.83 102.722L1206.22 110.173L1209.8 110.471C1213.18 110.769 1213.38 110.968 1213.48 114.246V117.723L1221.23 118.021L1228.88 118.319V122.194C1228.88 125.969 1228.78 126.068 1225.2 126.366C1221.62 126.664 1221.42 126.863 1221.42 130.141C1221.42 133.419 1221.62 133.618 1225.2 133.916L1228.88 134.214V130.24V126.167H1232.85H1236.82V130.141V134.115H1240.8H1244.77V150.01V165.905H1248.74H1252.72V150.01V134.115H1256.69H1260.67V138.089V142.062H1264.64H1268.61V138.089V134.115H1272.59H1276.56V138.089V142.062H1280.53H1284.51V138.089V134.115H1300.4H1316.3V130.141V126.167H1320.27H1324.25V122.194V118.22H1328.22H1332.19V126.167V134.115H1336.17H1340.14V126.167V118.22H1336.17H1332.19V110.173V102.225L1335.97 102.523C1339.45 102.821 1339.64 103.02 1339.94 106.497L1340.24 110.173L1351.86 110.471L1363.49 110.769L1363.59 118.22L1363.69 125.671L1371.34 125.969L1378.89 126.267V134.115V141.963L1375.21 142.261C1371.63 142.559 1371.43 142.758 1371.43 146.036C1371.34 149.314 1371.14 149.513 1367.46 150.01C1363.78 150.507 1363.59 150.705 1363.49 153.984V157.461L1351.86 157.759L1340.14 158.057V153.984V150.01H1336.17H1332.19V153.984V157.957H1324.25H1316.3V165.905V173.853H1308.35H1300.4V177.826V181.8H1292.46H1284.51V173.853V165.905H1280.53H1276.56V173.853V181.8H1272.59H1268.61V193.821V205.841L1264.94 205.444C1261.16 205.146 1261.16 205.146 1260.86 209.219C1260.57 213.292 1260.47 213.292 1256.89 213.193C1253.31 213.094 1253.21 213.193 1252.92 216.769C1252.62 220.246 1252.42 220.445 1248.94 220.743C1245.47 221.041 1245.27 221.24 1244.97 224.717C1244.67 228.194 1244.47 228.393 1241 228.691L1237.32 228.989L1237.02 236.638L1236.72 244.288L1233.05 244.586L1229.37 244.884L1229.07 252.533L1228.78 260.282H1220.83H1212.78L1213.18 256.606C1213.48 252.931 1213.38 252.831 1209.8 252.533C1206.32 252.235 1206.13 252.036 1205.83 248.559C1205.53 245.082 1205.33 244.884 1201.85 244.586L1198.08 244.288V236.34V228.492H1202.15H1206.22L1205.83 224.816C1205.53 221.14 1205.63 221.041 1209.3 220.743L1212.98 220.445V228.393V236.439H1216.95H1220.93V228.492V220.544H1224.9H1228.88V216.471V212.398L1225.2 212.795C1221.52 213.094 1221.42 212.994 1221.13 209.418C1220.83 205.941 1220.63 205.742 1217.15 205.444C1213.58 205.146 1213.48 205.047 1213.58 201.371L1213.68 197.695H1205.93H1198.08V193.721V189.748H1186.26H1174.34L1174.04 193.423L1173.74 197.198L1162.12 197.496L1150.49 197.794L1150.19 201.47L1149.9 205.146L1134.5 205.345L1119.1 205.444L1118.8 212.994L1118.5 220.445L1110.85 220.743L1103.2 221.041L1102.91 228.691L1102.61 236.439H1106.68H1110.66V240.413V244.387H1114.63H1118.6V248.361V252.334H1126.55H1134.5V256.308V260.282H1138.47H1142.45V256.308V252.334H1138.47H1134.5V248.361V244.387H1142.45H1150.39V252.334V260.282H1154.37H1158.34V252.334V244.387H1162.31H1166.29V248.361V252.334H1170.26H1174.24V244.387V236.34L1181.98 236.638L1189.63 236.936L1189.93 244.586L1190.23 252.235L1193.91 252.533C1197.38 252.831 1197.58 253.03 1197.88 256.507L1198.18 260.282H1194.2H1190.13V264.256V268.23H1186.16H1182.18V272.203V276.177H1178.21H1174.24V280.151V284.125H1170.26H1166.29V288.098V292.072H1158.34H1150.39V296.046V300.02H1142.45H1134.5V303.994V307.967H1130.52H1126.55V311.941V315.915H1122.58H1118.6V319.889V323.862H1114.63H1110.66V327.836V331.81H1102.71H1094.76V351.182V370.554H1090.79C1086.81 370.554 1086.81 370.554 1086.81 366.779V363.103H1079.16H1071.41L1071.12 355.354L1070.82 347.705H1074.89H1078.87V343.731V339.757H1082.84C1086.81 339.757 1086.81 339.757 1086.81 335.883C1086.81 332.009 1086.71 331.909 1083.14 331.611C1079.56 331.313 1079.36 331.114 1079.06 327.637L1078.77 323.862H1082.74H1086.81V319.889V315.915H1090.79H1094.76V319.889V323.862H1098.73H1102.71V319.889V315.915H1098.73H1094.76V311.941V307.967H1075.49H1056.12L1055.82 311.742L1055.52 315.418L1039.92 315.716L1024.23 316.014V319.889C1024.23 323.862 1024.23 323.862 1020.25 323.862H1016.28V327.836V331.81H1008.33H1000.38V335.784V339.757H996.41H992.436V343.831V347.804L996.211 347.506C999.688 347.208 999.887 347.01 1000.18 343.433C1000.48 339.857 1000.58 339.757 1004.46 339.757C1008.33 339.757 1008.33 339.757 1008.33 343.731V347.705H1012.3H1016.28V351.778V355.752L1020.05 355.454C1023.53 355.156 1023.73 354.957 1024.03 351.381L1024.33 347.705H1032.27H1040.12V351.679V355.653H1036.15H1032.17V359.726V363.699L1035.95 363.401C1039.43 363.103 1039.62 362.905 1039.92 359.428C1040.22 355.951 1040.42 355.752 1043.9 355.454C1047.37 355.156 1047.57 354.957 1047.87 351.381C1048.17 347.804 1048.27 347.705 1052.14 347.705H1056.02V363.103V378.502H1052.04H1048.07V382.475V386.449H1044.1H1040.12V390.423V394.397H755.5H470.879V390.423V386.449H466.905H462.931V382.475V378.502H458.957H454.984V363.103V347.705H458.858C462.732 347.705 462.832 347.804 463.13 351.381C463.428 354.957 463.627 355.156 467.104 355.454C470.581 355.752 470.779 355.951 471.077 359.428C471.375 362.905 471.574 363.103 475.15 363.401L478.826 363.699V359.726V355.653H474.852H470.879V351.679V347.705H478.727H486.674L486.972 351.381C487.27 354.957 487.469 355.156 491.046 355.454L494.721 355.752V351.778V347.705H498.695H502.669V343.731C502.669 339.757 502.669 339.757 506.543 339.757C510.418 339.757 510.517 339.857 510.815 343.433C511.113 347.01 511.312 347.208 514.888 347.506L518.564 347.804V343.831V339.757H514.59H510.616V335.784V331.81H502.669H494.721V327.836V323.862H490.748C486.774 323.862 486.774 323.862 486.774 319.889V316.014L471.177 315.716L455.48 315.418L455.182 311.643L454.884 307.967H435.512H416.239V311.941V315.915H412.266H408.292V319.889V323.862H412.266H416.239V319.889V315.915H420.213H424.187V319.889V323.862H428.26H432.234L431.936 327.538C431.638 331.114 431.439 331.313 427.962 331.611C424.286 331.909 424.187 332.009 424.187 335.883C424.187 339.757 424.187 339.757 428.161 339.757H432.134V343.731V347.705H436.108H440.181L439.883 355.354L439.585 363.103H431.836H424.187V366.779C424.187 370.554 424.187 370.554 420.213 370.554H416.239V351.182V331.81H408.292H400.344V327.836V323.862H396.37H392.397V319.889V315.915H388.423H384.449V311.941V307.967H380.475H376.502V303.994V300.02H368.554H360.607V296.046V292.072H352.659H344.711V288.098V284.125H340.738H336.764V280.151V276.177H332.79H328.816V272.203V268.23H324.843H320.869V264.256V260.282H316.796H312.822L313.12 256.507C313.418 253.03 313.617 252.831 317.094 252.533L320.77 252.235L321.068 244.586L321.366 236.936L329.114 236.638L336.764 236.34V244.387V252.334H340.738H344.711V248.361V244.387H348.685H352.659V252.334V260.282H356.633H360.607V252.334V244.387H368.554H376.502V248.361V252.334H372.528H368.554V256.308V260.282H372.528H376.502V256.308V252.334H384.449H392.397V248.361V244.387H396.37H400.344V240.413V236.439H404.318H408.391L408.093 228.691L407.795 221.041L400.146 220.743L392.496 220.445L392.198 212.994L391.9 205.444L376.502 205.345L361.103 205.146L360.805 201.47L360.507 197.794L348.884 197.496L337.261 197.198L336.963 193.423L336.665 189.748H324.743H312.921V193.721V197.695H304.874H296.828L297.225 201.371C297.523 205.047 297.424 205.146 293.847 205.444C290.271 205.742 290.072 205.941 290.072 209.219C290.072 212.497 289.973 212.597 286.098 212.597H282.125V216.571V220.544H286.098H290.072V228.492V236.439H294.145C297.424 236.439 298.119 236.141 297.622 234.85C297.324 233.956 297.026 230.379 297.026 226.902V220.544H293.45C289.973 220.544 289.973 220.445 290.271 216.769C290.569 213.292 290.768 213.094 294.046 213.094C297.324 213.094 297.523 213.292 297.523 216.571C297.523 219.849 297.722 220.048 301.497 220.544C305.371 221.041 305.47 221.14 305.172 224.717L304.775 228.492H308.848H312.921V236.34V244.288L309.246 244.586C305.669 244.884 305.47 245.082 305.172 248.559C304.874 252.036 304.676 252.235 301.199 252.533C297.622 252.831 297.523 252.931 297.622 256.507L297.722 260.282H289.973H282.224L281.926 252.533L281.628 244.884L277.952 244.586L274.276 244.288L273.978 236.638L273.68 228.989L270.005 228.691C266.528 228.393 266.329 228.194 266.031 224.717C265.733 221.24 265.534 221.041 262.057 220.743C258.58 220.445 258.381 220.246 258.083 216.769C257.785 213.193 257.686 213.094 254.109 213.193C250.533 213.292 250.434 213.292 250.136 209.219C249.838 205.146 249.838 205.146 246.162 205.444L242.387 205.841V193.821V181.8H238.413H234.439V173.853V165.905H230.466H226.492V173.853V181.8H218.544H210.597V177.826V173.853H202.649H194.702V165.905V157.957H186.754H178.807V153.984V150.01H174.833H170.859V153.984V158.057L159.236 157.759L147.513 157.461V153.984C147.414 150.705 147.215 150.507 143.539 150.01C139.864 149.513 139.665 149.314 139.566 146.036C139.566 142.758 139.367 142.559 135.89 142.261L132.115 141.963V134.115V126.267L139.665 125.969L147.314 125.671L147.414 118.22L147.513 110.769L159.136 110.471L170.76 110.173L171.058 106.497C171.356 103.02 171.554 102.821 175.131 102.523L178.807 102.225V110.173V118.22H174.833H170.859V126.167V134.115H174.833H178.807V126.167V118.22H182.78H186.754V122.194V126.167H190.728H194.702V130.141V134.115H210.597H226.492V138.089V142.062H230.466H234.439V138.089V134.115H238.413H242.387V138.089V142.062H246.361H250.334V138.089V134.115H254.308H258.282V150.01V165.905H262.256H266.229V150.01V134.115H270.203H274.177V130.141V126.167H278.151H282.125V130.24V134.214L285.9 133.916C289.377 133.618 289.575 133.419 289.575 130.141C289.575 126.863 289.377 126.664 285.9 126.366C282.224 126.068 282.125 125.969 282.125 122.194V118.319L289.774 118.021L297.424 117.723L297.523 114.246C297.523 110.968 297.722 110.769 301.199 110.471L304.775 110.173L305.172 102.722C305.371 98.5496 305.272 94.9732 305.073 94.7745C304.874 94.5758 301.397 94.3771 297.424 94.3771H290.171L289.873 90.6021C289.575 87.125 289.377 86.9263 285.9 86.6283C282.423 86.3302 282.224 86.1315 281.926 82.6545L281.628 78.9788L254.109 78.6807L226.591 78.482L226.293 74.7069L225.995 71.0312H206.623H187.251L186.953 74.7069C186.655 78.184 186.456 78.3827 182.979 78.6807C179.502 78.9788 179.303 79.1775 179.005 82.6545L178.707 86.4296H170.76H162.812L163.11 82.6545C163.408 79.1775 163.607 78.9788 167.084 78.6807L170.76 78.3827L171.058 70.7332L171.356 63.0837H174.833C178.111 63.0837 178.31 62.885 178.807 59.1099C179.105 56.9243 179.601 55.2355 180.098 55.3348C180.495 55.5335 183.873 55.6328 187.648 55.6328H194.602L194.9 59.3086C195.198 62.7856 195.397 62.9843 198.675 62.9843C201.954 62.9843 202.152 62.6863 202.649 59.2093L203.146 55.4342H214.57H225.995L226.492 59.1099L226.989 62.7856H234.439H241.89L242.188 59.2093L242.486 55.6328H257.388C265.534 55.6328 272.488 55.6328 272.985 55.6328C273.382 55.6328 273.78 57.3217 273.978 59.3086C274.276 62.9843 274.376 63.0837 277.952 62.9843C281.529 62.885 281.628 62.7856 281.926 59.0106L282.224 55.1361L286.098 55.4342L290.072 55.8315V63.183V70.5345H293.847H297.523L297.424 62.885L297.324 55.1361L293.649 55.4342C290.072 55.8315 290.072 55.7322 290.072 51.7584C290.072 47.9833 290.171 47.7847 293.649 47.4866L297.126 47.1886L297.324 39.4397L297.523 31.7902H289.873H282.125V27.8165V23.8427H262.256H242.387V19.8689V15.8951H238.413H234.439V11.9214V7.9476H230.466H226.492V3.97385V6.10352e-05H183.277H140.062V2.98041ZM226.492 35.764V39.7378H222.518H218.544V43.8109V47.7847L214.869 47.4866C211.292 47.1886 211.093 46.9899 210.795 43.4135L210.497 39.7378H214.471H218.544V35.764V31.7902H222.518H226.492V35.764ZM1292.46 35.764V39.7378H1296.53H1300.5L1300.2 43.4135C1299.91 46.9899 1299.71 47.1886 1296.23 47.4866L1292.46 47.7847V43.8109V39.7378H1288.48H1284.51V35.764V31.7902H1288.48H1292.46V35.764ZM76.482 51.7584V55.8315L80.257 55.4342L83.9328 55.1361V59.0106C83.9328 62.885 83.8334 62.9843 80.4557 62.9843C77.1774 62.9843 76.9787 62.7856 76.6807 59.3086C76.3826 55.9309 76.0846 55.7322 72.7069 55.4342C69.2298 55.1361 69.0311 54.9374 68.7331 51.3611L68.4351 47.6853H72.4089H76.482V51.7584ZM1442.27 51.3611C1441.97 54.9374 1441.77 55.1361 1438.29 55.4342C1434.92 55.7322 1434.62 55.9309 1434.32 59.3086C1434.02 62.7856 1433.82 62.9843 1430.54 62.9843C1427.17 62.9843 1427.07 62.885 1427.07 59.0106V55.1361L1430.84 55.4342L1434.52 55.8315V51.7584V47.6853H1438.59H1442.56L1442.27 51.3611ZM194.702 106.298V110.272H198.675H202.649V114.246V118.22H198.675H194.702V114.246V110.272H190.728H186.754V106.298V102.325H190.728H194.702V106.298ZM1324.25 106.298V110.272H1320.27H1316.3V114.246V118.22H1312.32H1308.35V114.246V110.272H1312.32H1316.3V106.298V102.325H1320.27H1324.25V106.298ZM92.377 146.036V157.957H84.4295H76.482V153.984V150.01H68.5344H60.5869V146.036V142.062H56.6131H52.6393V138.089V134.115H72.5082H92.377V146.036ZM1458.36 138.089V142.062H1454.39H1450.41V146.036V150.01H1442.47H1434.52V153.984V157.957H1426.57H1418.62V146.036V134.115H1438.49H1458.36V138.089ZM124.167 153.984V157.957H132.214H140.162L139.864 161.633L139.566 165.408L123.969 165.706L108.272 166.004V157.957V150.01H116.22H124.167V153.984ZM1402.73 157.957V166.004L1387.13 165.706L1371.43 165.408L1371.14 161.633L1370.84 157.957H1378.79H1386.83V153.984V150.01H1394.78H1402.73V157.957ZM368.355 216.769C368.653 220.246 368.852 220.445 372.329 220.743C375.806 221.041 376.005 221.24 376.303 224.717L376.601 228.492H372.627H368.554V224.518V220.544H364.58C360.706 220.544 360.607 220.445 360.607 217.266C360.607 213.094 361.302 212.398 365.077 212.795C367.759 213.094 368.057 213.491 368.355 216.769ZM1150.19 216.769L1150.49 220.544H1146.52H1142.45V224.518V228.492H1138.37H1134.4L1134.7 224.717C1135 221.24 1135.19 221.041 1138.77 220.743C1142.25 220.445 1142.45 220.246 1142.45 217.167C1142.45 213.094 1143.14 212.398 1146.92 212.795C1149.6 213.094 1149.9 213.491 1150.19 216.769ZM1220.93 216.869C1220.93 220.644 1220.93 220.644 1217.25 220.346C1214.17 220.147 1213.38 219.65 1213.18 217.763C1212.58 213.789 1213.68 212.497 1217.45 212.795C1220.83 212.994 1220.93 213.193 1220.93 216.869ZM320.869 224.518V228.492H316.895C313.021 228.492 312.921 228.393 312.921 225.214C312.921 221.041 313.418 220.544 317.59 220.544C320.77 220.544 320.869 220.644 320.869 224.518ZM1197.88 224.717L1198.18 228.492H1194.2H1190.13V224.419V220.445L1193.91 220.743C1197.38 221.041 1197.58 221.24 1197.88 224.717ZM384.449 240.413V244.387H380.475H376.502V240.413V236.439H380.475H384.449V240.413ZM1134.5 240.413V244.387H1130.52H1126.55V240.413V236.439H1130.52H1134.5V240.413ZM297.225 276.177V283.628L285.701 283.926L274.177 284.224V280.151V276.177H278.151H282.125V272.203V268.13L289.675 268.428L297.225 268.726V276.177ZM320.869 272.203V276.177H324.843H328.816V280.151V284.125H320.869H312.921V276.873C312.921 272.799 313.219 269.223 313.617 268.925C313.915 268.528 315.703 268.23 317.59 268.23C320.77 268.23 320.869 268.329 320.869 272.203ZM1197.88 276.376L1198.18 284.125H1190.13H1182.18V280.151V276.177H1186.16H1190.13V272.104V268.13L1193.91 268.428L1197.58 268.726L1197.88 276.376ZM1228.88 272.203V276.177H1232.85H1236.82V280.151V284.224L1225.2 283.926L1213.48 283.628L1213.18 277.27C1212.98 273.793 1213.08 270.316 1213.38 269.62C1213.78 268.627 1216.06 268.23 1221.42 268.23H1228.88V272.203ZM486.774 335.883V339.857L483.098 339.559C479.522 339.261 479.323 339.062 479.025 335.486L478.727 331.81H482.701H486.774V335.883ZM1031.98 335.486C1031.68 339.062 1031.48 339.261 1028 339.559L1024.23 339.857V335.883V331.81H1028.3H1032.27L1031.98 335.486ZM439.883 374.727L440.181 378.502H432.234H424.187V374.528V370.455L431.936 370.753L439.585 371.051L439.883 374.727ZM1086.81 374.528V378.502H1078.87H1070.92V375.223C1070.92 373.336 1071.22 371.548 1071.61 371.25C1071.91 370.852 1075.49 370.554 1079.56 370.554H1086.81V374.528ZM454.984 382.475V386.449H458.957H462.931V390.423V394.397H455.282H447.533L447.731 386.747C447.831 382.475 447.93 378.899 448.03 378.7C448.03 378.601 449.619 378.502 451.507 378.502C454.884 378.502 454.984 378.601 454.984 382.475ZM1063.27 386.747L1063.47 394.397H1055.82H1048.07V390.423V386.449H1052.04H1056.02V382.376C1056.02 378.402 1056.02 378.402 1059.59 378.7L1063.17 378.998L1063.27 386.747Z" fill="#004924"/>
</svg>
