<svg width="1512" height="135" viewBox="0 0 1512 135" fill="none" xmlns="http://www.w3.org/2000/svg">
<path d="M-3 51.7015V103.321H0.559977H4.11995V107.326V111.331H8.12493H12.1299V115.336V119.341H20.0508H28.0608L28.3278 123.079L28.5948 126.906L40.1647 127.084L51.7346 127.173L52.0016 130.822L52.2686 134.471H86.9784C106.024 134.471 121.866 134.471 122.311 134.471C122.667 134.471 123.023 132.869 123.201 130.911L123.468 127.44L135.216 127.173L146.964 126.906L146.697 123.079L146.341 119.341H154.44H162.539V115.336V111.331H166.544H170.549V107.326V103.321H174.554H178.559V99.3162V95.3112H182.564H186.569V91.3062V87.3013H190.574H194.579V79.2913V71.2814H198.584H202.589V75.2863V79.2913H206.594H210.599V83.2963V87.2123L218.431 87.4793L226.173 87.7463L226.44 91.4842L226.707 95.3112H258.302H289.808V91.3062V87.3013H297.818H305.828V83.2963V79.2913H309.833H313.838V75.1973V71.1924L317.665 71.4594C321.403 71.7264 321.403 71.7264 321.403 75.2863C321.403 78.8463 321.403 78.8463 325.141 79.1133C328.879 79.3803 328.879 79.3803 329.146 83.1183L329.413 86.8563L337.245 87.1233L344.988 87.3903V91.3062V95.3112H361.008H377.027V91.3062V87.3013H385.037H393.047V83.2963V79.2023L400.79 79.4693L408.533 79.7363V83.2963L408.622 86.8563L424.464 87.1233L440.217 87.3013V83.2963V79.2913H448.227H456.237V75.2863V71.2814H464.247H472.257V75.2863V79.2023L480.089 79.4693L487.832 79.7363L488.099 91.4842L488.366 103.232L492.015 103.499C495.664 103.766 495.753 103.766 495.753 107.326C495.842 110.886 495.842 110.886 499.58 111.153C503.318 111.42 503.318 111.42 503.585 115.158L503.852 118.896L515.6 119.163L527.347 119.43L527.615 123.168L527.881 126.906L559.298 127.173L590.626 127.351V123.346V119.341H602.641H614.656V115.336V111.331H618.661H622.666V107.326V103.321H626.671H630.676V95.3112V87.3013H642.691H654.706V83.2073V79.2023L658.533 79.4693L662.271 79.7363L662.538 87.4793L662.805 95.2222L666.454 95.4892C670.103 95.7562 670.192 95.7562 670.192 99.3162C670.281 102.876 670.281 102.876 674.019 103.143C677.757 103.41 677.757 103.41 678.023 107.148L678.291 110.886L690.038 111.153L701.786 111.42L702.053 115.158L702.32 118.896H725.905H749.49L749.757 115.069L750.024 111.331H757.5H764.976L765.243 115.069L765.51 118.896H789.095H812.68L812.947 115.158L813.214 111.42L824.962 111.153L836.709 110.886L836.976 107.148C837.243 103.499 837.332 103.41 840.892 103.143C844.541 102.876 844.63 102.876 844.63 99.3162C844.719 95.7562 844.719 95.7562 848.457 95.4892L852.195 95.2222L852.462 87.4793L852.729 79.7363L856.556 79.4693L860.294 79.2023V83.2073V87.3013H872.309H884.324V95.3112V103.321H888.329H892.334V107.326V111.331H896.339H900.344V115.336V119.341H912.359H924.374V123.346V127.351L955.791 127.173L987.118 126.906L987.385 123.168L987.652 119.43L999.4 119.163L1011.15 118.896L1011.42 115.158C1011.68 111.42 1011.68 111.42 1015.42 111.153C1019.16 110.886 1019.16 110.886 1019.16 107.326C1019.16 103.766 1019.16 103.766 1022.9 103.499L1026.63 103.232L1026.9 91.4842L1027.17 79.7363L1035 79.4693L1042.74 79.2023V75.2863V71.2814H1050.75H1058.76V75.2863V79.2913H1066.77H1074.78V83.2963V87.3013L1090.54 87.1233L1106.29 86.8563V83.2963L1106.38 79.7363L1114.21 79.4693L1121.95 79.2023V83.2963V87.3013H1129.96H1137.97V91.3062V95.3112H1153.99H1170.01V91.3062V87.3903L1177.84 87.1233L1185.59 86.8563L1185.85 83.1183C1186.12 79.4693 1186.21 79.3803 1189.77 79.1133C1193.42 78.8463 1193.51 78.8463 1193.51 75.2863C1193.6 71.7264 1193.6 71.7264 1197.42 71.4594L1201.16 71.1924V75.1973V79.2913H1205.17H1209.17V83.2963V87.3013H1217.18H1225.19V91.3062V95.3112H1256.7H1288.29L1288.56 91.5732L1288.83 87.7463L1296.66 87.4793L1304.4 87.2123V83.2963V79.2913H1308.41H1312.41V75.2863V71.2814H1316.42H1320.42V79.2913V87.3013H1324.43H1328.43V91.3062V95.3112H1332.44H1336.44V99.3162V103.321H1340.45H1344.45V107.326V111.331H1348.46H1352.46V115.336V119.341H1360.29H1368.21L1368.12 123.168L1368.04 126.906L1379.78 127.173L1391.53 127.44L1391.8 130.911C1391.98 132.869 1392.33 134.471 1392.78 134.471C1393.13 134.471 1408.98 134.471 1428.02 134.471H1462.73L1463 130.822L1463.27 127.173L1474.84 127.084L1486.41 126.906L1486.67 123.168L1486.94 119.341H1494.95H1502.87V115.336V111.331H1506.88H1510.88V107.326V103.321H1514.44H1518V51.7015V0.0818176H757.5H-3V51.7015Z" fill="#004924"/>
</svg>
