<svg width="40" height="41" viewBox="0 0 40 41" fill="none" xmlns="http://www.w3.org/2000/svg">
<g clip-path="url(#clip0_117_591)">
<path d="M20.0065 0.54834C11.6567 0.54834 9.21471 0.556957 8.74003 0.59634C7.02651 0.738813 5.96026 1.00869 4.79861 1.58718C3.90341 2.03185 3.19738 2.54727 2.50058 3.2698C1.2316 4.58745 0.462512 6.2085 0.184097 8.13544C0.0487445 9.0709 0.00936147 9.26168 0.00136399 14.0399C-0.00170499 15.6327 0.00136399 17.7289 0.00136399 20.5405C0.00136399 28.8858 0.010586 31.326 0.0505885 31.7999C0.189025 33.4677 0.450508 34.5171 1.00425 35.6649C2.06252 37.862 4.08366 39.5113 6.46477 40.1268C7.28923 40.3391 8.19983 40.456 9.36884 40.5114C9.86413 40.5329 14.9124 40.5483 19.9638 40.5483C25.0151 40.5483 30.0665 40.5422 30.5495 40.5176C31.9031 40.4539 32.6891 40.3483 33.5581 40.1237C35.9546 39.5052 37.9389 37.8804 39.0186 35.6525C39.5616 34.5324 39.837 33.4431 39.9616 31.8624C39.9886 31.5177 40 26.0228 40 20.5353C40 15.0468 39.9877 9.56202 39.9606 9.21737C39.8345 7.61108 39.5592 6.531 38.9987 5.38936C38.5387 4.45481 38.0281 3.7569 37.2867 3.04333C35.9635 1.77921 34.3454 1.00991 32.4171 0.731738C31.4828 0.596642 31.2967 0.55664 26.5161 0.54834H20.0065Z" fill="url(#paint0_radial_117_591)"/>
<path d="M20.0065 0.54834C11.6567 0.54834 9.21471 0.556957 8.74003 0.59634C7.02651 0.738813 5.96026 1.00869 4.79861 1.58718C3.90341 2.03185 3.19738 2.54727 2.50058 3.2698C1.2316 4.58745 0.462512 6.2085 0.184097 8.13544C0.0487445 9.0709 0.00936147 9.26168 0.00136399 14.0399C-0.00170499 15.6327 0.00136399 17.7289 0.00136399 20.5405C0.00136399 28.8858 0.010586 31.326 0.0505885 31.7999C0.189025 33.4677 0.450508 34.5171 1.00425 35.6649C2.06252 37.862 4.08366 39.5113 6.46477 40.1268C7.28923 40.3391 8.19983 40.456 9.36884 40.5114C9.86413 40.5329 14.9124 40.5483 19.9638 40.5483C25.0151 40.5483 30.0665 40.5422 30.5495 40.5176C31.9031 40.4539 32.6891 40.3483 33.5581 40.1237C35.9546 39.5052 37.9389 37.8804 39.0186 35.6525C39.5616 34.5324 39.837 33.4431 39.9616 31.8624C39.9886 31.5177 40 26.0228 40 20.5353C40 15.0468 39.9877 9.56202 39.9606 9.21737C39.8345 7.61108 39.5592 6.531 38.9987 5.38936C38.5387 4.45481 38.0281 3.7569 37.2867 3.04333C35.9635 1.77921 34.3454 1.00991 32.4171 0.731738C31.4828 0.596642 31.2967 0.55664 26.5161 0.54834H20.0065Z" fill="url(#paint1_radial_117_591)"/>
<path d="M20.0065 0.54834C11.6567 0.54834 9.21471 0.556957 8.74003 0.59634C7.02651 0.738813 5.96026 1.00869 4.79861 1.58718C3.90341 2.03185 3.19738 2.54727 2.50058 3.2698C1.2316 4.58745 0.462512 6.2085 0.184097 8.13544C0.0487445 9.0709 0.00936147 9.26168 0.00136399 14.0399C-0.00170499 15.6327 0.00136399 17.7289 0.00136399 20.5405C0.00136399 28.8858 0.010586 31.326 0.0505885 31.7999C0.189025 33.4677 0.450508 34.5171 1.00425 35.6649C2.06252 37.862 4.08366 39.5113 6.46477 40.1268C7.28923 40.3391 8.19983 40.456 9.36884 40.5114C9.86413 40.5329 14.9124 40.5483 19.9638 40.5483C25.0151 40.5483 30.0665 40.5422 30.5495 40.5176C31.9031 40.4539 32.6891 40.3483 33.5581 40.1237C35.9546 39.5052 37.9389 37.8804 39.0186 35.6525C39.5616 34.5324 39.837 33.4431 39.9616 31.8624C39.9886 31.5177 40 26.0228 40 20.5353C40 15.0468 39.9877 9.56202 39.9606 9.21737C39.8345 7.61108 39.5592 6.531 38.9987 5.38936C38.5387 4.45481 38.0281 3.7569 37.2867 3.04333C35.9635 1.77921 34.3454 1.00991 32.4171 0.731738C31.4828 0.596642 31.2967 0.55664 26.5161 0.54834H20.0065Z" fill="url(#paint2_radial_117_591)"/>
<path d="M20.0065 0.54834C11.6567 0.54834 9.21471 0.556957 8.74003 0.59634C7.02651 0.738813 5.96026 1.00869 4.79861 1.58718C3.90341 2.03185 3.19738 2.54727 2.50058 3.2698C1.2316 4.58745 0.462512 6.2085 0.184097 8.13544C0.0487445 9.0709 0.00936147 9.26168 0.00136399 14.0399C-0.00170499 15.6327 0.00136399 17.7289 0.00136399 20.5405C0.00136399 28.8858 0.010586 31.326 0.0505885 31.7999C0.189025 33.4677 0.450508 34.5171 1.00425 35.6649C2.06252 37.862 4.08366 39.5113 6.46477 40.1268C7.28923 40.3391 8.19983 40.456 9.36884 40.5114C9.86413 40.5329 14.9124 40.5483 19.9638 40.5483C25.0151 40.5483 30.0665 40.5422 30.5495 40.5176C31.9031 40.4539 32.6891 40.3483 33.5581 40.1237C35.9546 39.5052 37.9389 37.8804 39.0186 35.6525C39.5616 34.5324 39.837 33.4431 39.9616 31.8624C39.9886 31.5177 40 26.0228 40 20.5353C40 15.0468 39.9877 9.56202 39.9606 9.21737C39.8345 7.61108 39.5592 6.531 38.9987 5.38936C38.5387 4.45481 38.0281 3.7569 37.2867 3.04333C35.9635 1.77921 34.3454 1.00991 32.4171 0.731738C31.4828 0.596642 31.2967 0.55664 26.5161 0.54834H20.0065Z" fill="url(#paint3_radial_117_591)"/>
<path d="M20.0083 5.68457C15.9692 5.68457 15.4623 5.70221 13.876 5.77436C12.2927 5.8468 11.212 6.09728 10.2663 6.4648C9.28816 6.84437 8.45841 7.35213 7.63176 8.17847C6.8045 9.00452 6.29635 9.83365 5.91525 10.8108C5.54654 11.756 5.29556 12.8362 5.22431 14.4177C5.15336 16.0029 5.13477 16.5098 5.13477 20.5458C5.13477 24.5819 5.15274 25.0869 5.22461 26.6721C5.29744 28.2542 5.54809 29.3341 5.91556 30.279C6.29573 31.2565 6.80387 32.0856 7.63083 32.9116C8.45718 33.7383 9.28692 34.2473 10.2645 34.6269C11.2107 34.9944 12.2918 35.2448 13.8747 35.3173C15.4611 35.3894 15.9677 35.4071 20.0064 35.4071C24.0458 35.4071 24.5512 35.3894 26.1375 35.3173C27.7208 35.2448 28.8028 34.9944 29.749 34.6269C30.7269 34.2473 31.5554 33.7383 32.3817 32.9116C33.209 32.0856 33.7172 31.2565 34.0983 30.2793C34.4639 29.3341 34.7148 28.2539 34.7892 26.6724C34.8605 25.0872 34.879 24.5819 34.879 20.5458C34.879 16.5097 34.8605 16.0032 34.7892 14.418C34.7148 12.8359 34.4639 11.756 34.0983 10.8111C33.7172 9.83364 33.209 9.00451 32.3817 8.17847C31.5545 7.35181 30.7272 6.84405 29.7481 6.46479C28.8 6.09728 27.7187 5.8468 26.1354 5.77436C24.549 5.70221 24.044 5.68457 20.0037 5.68457H20.0083ZM18.6741 8.3627C19.0701 8.36208 19.5119 8.3627 20.0083 8.3627C23.9792 8.3627 24.4498 8.37694 26.0179 8.44815C27.468 8.51441 28.255 8.75651 28.7792 8.95992C29.4733 9.22928 29.9681 9.55128 30.4883 10.0714C31.0088 10.5916 31.3311 11.087 31.6013 11.7805C31.8048 12.3037 32.0474 13.0901 32.1134 14.5391C32.1847 16.1057 32.2002 16.5763 32.2002 20.5424C32.2002 24.5085 32.1847 24.9791 32.1134 26.5458C32.0471 27.9947 31.8048 28.7811 31.6013 29.3044C31.3317 29.9979 31.0088 30.4917 30.4883 31.0116C29.9678 31.5317 29.4736 31.8537 28.7792 32.123C28.2556 32.3274 27.468 32.5689 26.0179 32.6351C24.4502 32.7064 23.9792 32.7218 20.0083 32.7218C16.0371 32.7218 15.5664 32.7064 13.9987 32.6351C12.5486 32.5683 11.7616 32.3262 11.2371 32.1227C10.543 31.8534 10.0473 31.5314 9.52674 31.0112C9.00621 30.4911 8.68398 29.997 8.41379 29.3031C8.21023 28.7799 7.96763 27.9935 7.90164 26.5445C7.83037 24.9779 7.81611 24.5073 7.81611 20.5387C7.81611 16.5701 7.83037 16.102 7.90164 14.5354C7.96795 13.0864 8.21023 12.3 8.41379 11.7761C8.68335 11.0826 9.00621 10.5872 9.52674 10.0671C10.0473 9.54695 10.543 9.22496 11.2371 8.95498C11.7613 8.75063 12.5486 8.50915 13.9987 8.44257C15.3706 8.38064 15.9023 8.36208 18.6741 8.35896L18.6741 8.3627ZM27.947 10.8303C26.9617 10.8303 26.1623 11.6281 26.1623 12.613C26.1623 13.5976 26.9617 14.3964 27.947 14.3964C28.9323 14.3964 29.7317 13.5976 29.7317 12.613C29.7317 11.6285 28.9323 10.8297 27.947 10.8297L27.947 10.8303ZM20.0083 12.9139C15.7904 12.9139 12.3708 16.3311 12.3708 20.5458C12.3708 24.7605 15.7904 28.1761 20.0083 28.1761C24.2261 28.1761 27.6446 24.7605 27.6446 20.5458C27.6446 16.3311 24.2258 12.9139 20.008 12.9139H20.0083ZM20.0083 15.5921C22.746 15.5921 24.9657 17.8098 24.9657 20.5458C24.9657 23.2815 22.746 25.4996 20.0083 25.4996C17.2703 25.4996 15.0509 23.2815 15.0509 20.5458C15.0509 17.8098 17.2703 15.5921 20.0083 15.5921Z" fill="white"/>
</g>
<defs>
<radialGradient id="paint0_radial_117_591" cx="0" cy="0" r="1" gradientUnits="userSpaceOnUse" gradientTransform="translate(38.7084 19.2968) rotate(164.25) scale(25.5577 18.4131)">
<stop stop-color="#FF005F"/>
<stop offset="1" stop-color="#FC01D8"/>
</radialGradient>
<radialGradient id="paint1_radial_117_591" cx="0" cy="0" r="1" gradientUnits="userSpaceOnUse" gradientTransform="translate(10.6247 43.6292) rotate(-90) scale(31.9288 33.8757)">
<stop stop-color="#FFCC00"/>
<stop offset="0.1242" stop-color="#FFCC00"/>
<stop offset="0.5672" stop-color="#FE4A05"/>
<stop offset="0.6942" stop-color="#FF0F3F"/>
<stop offset="1" stop-color="#FE0657" stop-opacity="0"/>
</radialGradient>
<radialGradient id="paint2_radial_117_591" cx="0" cy="0" r="1" gradientUnits="userSpaceOnUse" gradientTransform="translate(21.0108 39.9842) rotate(-59.8703) scale(13.2028 17.1886)">
<stop stop-color="#FFCC00"/>
<stop offset="1" stop-color="#FFCC00" stop-opacity="0"/>
</radialGradient>
<radialGradient id="paint3_radial_117_591" cx="0" cy="0" r="1" gradientUnits="userSpaceOnUse" gradientTransform="translate(5.42714 2.17713) rotate(164.274) scale(25.2742 8.61091)">
<stop stop-color="#780CFF"/>
<stop offset="1" stop-color="#820BFF" stop-opacity="0"/>
</radialGradient>
<clipPath id="clip0_117_591">
<rect width="40" height="40" fill="white" transform="translate(0 0.54834)"/>
</clipPath>
</defs>
</svg>
