<svg width="41" height="41" viewBox="0 0 41 41" fill="none" xmlns="http://www.w3.org/2000/svg">
<path d="M34.5819 34.631H28.6552V25.3492C28.6552 23.1358 28.6157 20.2866 25.5726 20.2866C22.4858 20.2866 22.0135 22.6981 22.0135 25.188V34.6304H16.0867V15.5432H21.7764V18.1516H21.8561C22.4255 17.178 23.2483 16.3771 24.2368 15.8342C25.2254 15.2912 26.3427 15.0266 27.4698 15.0684C33.4768 15.0684 34.5844 19.0197 34.5844 24.1601L34.5819 34.631ZM9.39938 12.9341C8.71913 12.9342 8.05412 12.7326 7.48845 12.3548C6.92278 11.9769 6.48188 11.4398 6.22145 10.8114C5.96102 10.183 5.89277 9.4914 6.02536 8.82418C6.15795 8.15696 6.48542 7.54405 6.96633 7.06294C7.44725 6.58184 8.06003 6.25415 8.72718 6.12131C9.39433 5.98848 10.0859 6.05647 10.7144 6.31668C11.3429 6.5769 11.8801 7.01764 12.2581 7.5832C12.6362 8.14875 12.838 8.81371 12.8381 9.49397C12.8382 9.94565 12.7493 10.3929 12.5765 10.8102C12.4038 11.2276 12.1505 11.6068 11.8312 11.9262C11.5119 12.2457 11.1328 12.4991 10.7155 12.672C10.2983 12.8449 9.85104 12.934 9.39938 12.9341ZM12.3627 34.631H6.42983V15.5432H12.3627V34.631ZM37.5366 0.551065H3.45165C2.67802 0.542334 1.93253 0.841112 1.37907 1.38174C0.825604 1.92238 0.509442 2.66063 0.5 3.43428V37.6618C0.509119 38.4358 0.825095 39.1746 1.37854 39.7158C1.93198 40.257 2.67763 40.5563 3.45165 40.5481H37.5366C38.3122 40.5578 39.0599 40.2593 39.6155 39.7181C40.1712 39.177 40.4893 38.4374 40.5 37.6618V3.43181C40.4889 2.65663 40.1706 1.91753 39.615 1.37691C39.0593 0.836295 38.3118 0.538371 37.5366 0.548595" fill="#0A66C2"/>
</svg>
