<svg width="1512" height="135" viewBox="0 0 1512 135" fill="none" xmlns="http://www.w3.org/2000/svg">
<path d="M89.6229 134.674L54.9416 134.497L54.6762 130.87L54.4108 127.243L42.7324 127.331L30.9655 127.508V123.438V119.457H23.0029H15.0404V115.476V111.495H11.0591H7.07782V107.513V103.532H3.53891H0V52.2178V0.903564H756H1512V52.2178V103.532H1508.46H1504.92V107.513V111.495H1500.94H1496.96V115.476V119.457H1489H1481.03V123.438V127.508L1469.36 127.331L1457.59 127.243L1457.32 130.87L1457.06 134.497H1422.55C1403.62 134.497 1387.87 134.586 1387.52 134.763C1387.08 134.851 1386.72 133.259 1386.55 131.224L1386.28 127.508L1374.6 127.243L1362.92 126.977L1363.01 123.261L1363.1 119.457H1355.23H1347.44V115.476V111.495H1343.46H1339.48V107.513V103.532H1335.5H1331.52V99.5507V95.5695H1327.53H1323.55V91.5882V87.6069H1319.57H1315.59V79.6444V71.6818H1311.61H1307.63V75.6631V79.6444H1303.65H1299.67V83.6256V87.5184L1291.97 87.7839L1284.18 88.0493L1283.92 91.8536L1283.65 95.5695H1252.24H1220.92V91.5882V87.6069H1212.96H1205V83.6256V79.6444H1201.02H1197.04V75.5746V71.5933L1193.32 71.8587C1189.52 72.1242 1189.52 72.1242 1189.43 75.6631C1189.43 79.202 1189.34 79.202 1185.71 79.4674C1182.17 79.7328 1182.08 79.8213 1181.82 83.4487L1181.55 87.1645L1173.86 87.43L1166.07 87.6954V91.5882V95.5695H1150.15H1134.22V91.5882V87.6069H1126.26H1118.3V83.6256V79.5559L1110.6 79.8213L1102.81 80.0867L1102.72 83.6256V87.1645L1087.07 87.43L1071.41 87.6069V83.6256V79.6444H1063.44H1055.48V75.6631V71.6818H1047.52H1039.56V75.6631V79.5559L1031.86 79.8213L1024.07 80.0867L1023.81 91.7651L1023.54 103.444L1019.83 103.709C1016.11 103.974 1016.11 103.974 1016.11 107.513C1016.11 111.052 1016.11 111.052 1012.39 111.318C1008.68 111.583 1008.68 111.583 1008.41 115.299L1008.15 119.015L996.469 119.28L984.791 119.546L984.525 123.261L984.26 126.977L953.117 127.243L921.886 127.42V123.438V119.457H909.943H897.999V115.476V111.495H894.018H890.036V107.513V103.532H886.055H882.074V95.5695V87.6069H870.13H858.186V83.5372V79.5559L854.47 79.8213L850.666 80.0867L850.4 87.7839L850.135 95.481L846.419 95.7464C842.703 96.0118 842.703 96.0118 842.615 99.5507C842.615 103.09 842.526 103.09 838.899 103.355C835.36 103.62 835.272 103.709 835.006 107.336L834.741 111.052L823.062 111.318L811.384 111.583L811.119 115.299L810.853 119.015H787.408H763.963L763.697 115.299L763.432 111.495H756H748.568L748.303 115.299L748.037 119.015H724.592H701.147L700.881 115.299L700.616 111.583L688.938 111.318L677.259 111.052L676.994 107.336C676.728 103.62 676.728 103.62 673.013 103.355C669.297 103.09 669.297 103.09 669.208 99.5507C669.208 96.0118 669.12 96.0118 665.492 95.7464L661.865 95.481L661.6 87.7839L661.334 80.0867L657.618 79.8213L653.814 79.5559V83.5372V87.6069H641.87H629.926V95.5695V103.532H625.945H621.964V107.513V111.495H617.982H614.001V115.476V119.457H602.057H590.114V123.438V127.42L558.971 127.243L527.74 126.977L527.475 123.261L527.209 119.546L515.531 119.28L503.853 119.015L503.587 115.299C503.322 111.583 503.322 111.583 499.606 111.318C495.89 111.052 495.89 111.052 495.802 107.513C495.802 103.974 495.713 103.974 492.086 103.709L488.458 103.444L488.193 91.7651L487.927 80.0867L480.23 79.8213L472.445 79.5559V75.6631V71.6818H464.482H456.52V75.6631V79.6444H448.557H440.595V83.6256V87.6069L424.935 87.43L409.187 87.1645L409.098 83.6256V80.0867L401.401 79.8213L393.704 79.5559V83.6256V87.6069H385.741H377.779V91.5882V95.5695H361.854H345.929V91.5882V87.6954L338.231 87.43L330.446 87.1645L330.18 83.4487C329.915 79.7328 329.915 79.7328 326.199 79.4674C322.483 79.202 322.483 79.202 322.395 75.6631C322.395 72.1242 322.306 72.1242 318.679 71.8587L314.963 71.5933V75.5746V79.6444H310.982H307.001V83.6256V87.6069H299.038H291.075V91.5882V95.5695H259.756H228.348L228.083 91.8536L227.817 88.0493L220.12 87.7839L212.335 87.5184V83.6256V79.6444H208.353H204.372V75.6631V71.6818H200.391H196.41V79.6444V87.6069H192.428H188.447V91.5882V95.5695H184.466H180.484V99.5507V103.532H176.503H172.522V107.513V111.495H168.541H164.559V115.476V119.457H156.508H148.457L148.811 123.261L149.077 126.977L137.398 127.243L125.631 127.508V130.959C125.631 132.817 125.366 134.497 125.012 134.674C124.57 134.851 108.733 134.851 89.6229 134.674Z" fill="#1F1360"/>
</svg>
