<svg width="1512" height="139" viewBox="0 0 1512 139" fill="none" xmlns="http://www.w3.org/2000/svg">
<path d="M89.6229 0.137466L54.9416 0.32077L54.6762 4.07849L54.4108 7.83621L42.7324 7.74457L30.9655 7.56126V11.7772V15.9016H23.0029H15.0404V20.0259V24.1502H11.0591H7.07782V28.2745V32.3989H3.53891H0V85.5569V138.715H756H1512V85.5569V32.3989H1508.46H1504.92V28.2745V24.1502H1500.94H1496.96V20.0259V15.9016H1489H1481.03V11.7772V7.56126L1469.36 7.74457L1457.59 7.83621L1457.32 4.07849L1457.06 0.32077H1422.55C1403.62 0.32077 1387.87 0.229126 1387.52 0.0458221C1387.08 -0.0458374 1386.72 1.6039 1386.55 3.71188L1386.28 7.56126L1374.6 7.83621L1362.92 8.11118L1363.01 11.9605L1363.1 15.9016H1355.23H1347.44V20.0259V24.1502H1343.46H1339.48V28.2745V32.3989H1335.5H1331.52V36.5232V40.6475H1327.53H1323.55V44.7719V48.8962H1319.57H1315.59V57.1448V65.3935H1311.61H1307.63V61.2692V57.1448H1303.65H1299.67V53.0205V48.9878L1291.97 48.7129L1284.18 48.4379L1283.92 44.4969L1283.65 40.6475H1252.24H1220.92V44.7719V48.8962H1212.96H1205V53.0205V57.1448H1201.02H1197.04V61.3608V65.4851L1193.32 65.2102C1189.52 64.9352 1189.52 64.9352 1189.43 61.2692C1189.43 57.6031 1189.34 57.6031 1185.71 57.3281C1182.17 57.0532 1182.08 56.9615 1181.82 53.2038L1181.55 49.3544L1173.86 49.0795L1166.07 48.8045V44.7719V40.6475H1150.15H1134.22V44.7719V48.8962H1126.26H1118.3V53.0205V57.2365L1110.6 56.9615L1102.81 56.6866L1102.72 53.0205V49.3544L1087.07 49.0795L1071.41 48.8962V53.0205V57.1448H1063.44H1055.48V61.2692V65.3935H1047.52H1039.56V61.2692V57.2365L1031.86 56.9615L1024.07 56.6866L1023.81 44.5885L1023.54 32.4905L1019.83 32.2156C1016.11 31.9406 1016.11 31.9406 1016.11 28.2745C1016.11 24.6085 1016.11 24.6085 1012.39 24.3335C1008.68 24.0586 1008.68 24.0586 1008.41 20.2092L1008.15 16.3598L996.469 16.0849L984.791 15.8099L984.525 11.9605L984.26 8.11118L953.117 7.83621L921.886 7.65291V11.7772V15.9016H909.943H897.999V20.0259V24.1502H894.018H890.036V28.2745V32.3989H886.055H882.074V40.6475V48.8962H870.13H858.186V53.1122V57.2365L854.47 56.9615L850.666 56.6866L850.4 48.7129L850.135 40.7392L846.419 40.4642C842.703 40.1893 842.703 40.1893 842.615 36.5232C842.615 32.8571 842.526 32.8571 838.899 32.5822C835.36 32.3072 835.272 32.2156 835.006 28.4578L834.741 24.6085L823.062 24.3335L811.384 24.0586L811.119 20.2092L810.853 16.3598H787.408H763.963L763.697 20.2092L763.432 24.1502H756H748.568L748.303 20.2092L748.037 16.3598H724.592H701.147L700.881 20.2092L700.616 24.0586L688.938 24.3335L677.259 24.6085L676.994 28.4578C676.728 32.3072 676.728 32.3072 673.013 32.5822C669.297 32.8571 669.297 32.8571 669.208 36.5232C669.208 40.1893 669.12 40.1893 665.492 40.4642L661.865 40.7392L661.6 48.7129L661.334 56.6866L657.618 56.9615L653.814 57.2365V53.1122V48.8962H641.87H629.926V40.6475V32.3989H625.945H621.964V28.2745V24.1502H617.982H614.001V20.0259V15.9016H602.057H590.114V11.7772V7.65291L558.971 7.83621L527.74 8.11118L527.475 11.9605L527.209 15.8099L515.531 16.0849L503.853 16.3598L503.587 20.2092C503.322 24.0586 503.322 24.0586 499.606 24.3335C495.89 24.6085 495.89 24.6085 495.802 28.2745C495.802 31.9406 495.713 31.9406 492.086 32.2156L488.458 32.4905L488.193 44.5885L487.927 56.6866L480.23 56.9615L472.445 57.2365V61.2692V65.3935H464.482H456.52V61.2692V57.1448H448.557H440.595V53.0205V48.8962L424.935 49.0795L409.187 49.3544L409.098 53.0205V56.6866L401.401 56.9615L393.704 57.2365V53.0205V48.8962H385.741H377.779V44.7719V40.6475H361.854H345.929V44.7719V48.8045L338.231 49.0795L330.446 49.3544L330.18 53.2038C329.915 57.0532 329.915 57.0532 326.199 57.3281C322.483 57.6031 322.483 57.6031 322.395 61.2692C322.395 64.9352 322.306 64.9352 318.679 65.2102L314.963 65.4851V61.3608V57.1448H310.982H307.001V53.0205V48.8962H299.038H291.075V44.7719V40.6475H259.756H228.348L228.083 44.4969L227.817 48.4379L220.12 48.7129L212.335 48.9878V53.0205V57.1448H208.353H204.372V61.2692V65.3935H200.391H196.41V57.1448V48.8962H192.428H188.447V44.7719V40.6475H184.466H180.484V36.5232V32.3989H176.503H172.522V28.2745V24.1502H168.541H164.559V20.0259V15.9016H156.508H148.457L148.811 11.9605L149.077 8.11118L137.398 7.83621L125.631 7.56126V3.98685C125.631 2.06216 125.366 0.32077 125.012 0.137466C124.57 -0.0458374 108.733 -0.0458374 89.6229 0.137466Z" fill="#004924"/>
</svg>
