<svg width="1512" height="134" viewBox="0 0 1512 134" fill="none" xmlns="http://www.w3.org/2000/svg">
<path d="M89.6229 0.13269L54.9416 0.309631L54.6762 3.93703L54.4108 7.56441L42.7324 7.47594L30.9655 7.29899V11.3687V15.35H23.0029H15.0404V19.3313V23.3126H11.0591H7.07782V27.2938V31.2751H3.53891H0V82.5893V133.904H756H1512V82.5893V31.2751H1508.46H1504.92V27.2938V23.3126H1500.94H1496.96V19.3313V15.35H1489H1481.03V11.3687V7.29899L1469.36 7.47594L1457.59 7.56441L1457.32 3.93703L1457.06 0.309631H1422.55C1403.62 0.309631 1387.87 0.221161 1387.52 0.04422C1387.08 -0.0442505 1386.72 1.54826 1386.55 3.58313L1386.28 7.29899L1374.6 7.56441L1362.92 7.82983L1363.01 11.5457L1363.1 15.35H1355.23H1347.44V19.3313V23.3126H1343.46H1339.48V27.2938V31.2751H1335.5H1331.52V35.2564V39.2377H1327.53H1323.55V43.2189V47.2002H1319.57H1315.59V55.1628V63.1253H1311.61H1307.63V59.1441V55.1628H1303.65H1299.67V51.1815V47.2887L1291.97 47.0233L1284.18 46.7579L1283.92 42.9535L1283.65 39.2377H1252.24H1220.92V43.2189V47.2002H1212.96H1205V51.1815V55.1628H1201.02H1197.04V59.2325V63.2138L1193.32 62.9484C1189.52 62.683 1189.52 62.683 1189.43 59.1441C1189.43 55.6051 1189.34 55.6051 1185.71 55.3397C1182.17 55.0743 1182.08 54.9858 1181.82 51.3584L1181.55 47.6426L1173.86 47.3772L1166.07 47.1117V43.2189V39.2377H1150.15H1134.22V43.2189V47.2002H1126.26H1118.3V51.1815V55.2512L1110.6 54.9858L1102.81 54.7204L1102.72 51.1815V47.6426L1087.07 47.3772L1071.41 47.2002V51.1815V55.1628H1063.44H1055.48V59.1441V63.1253H1047.52H1039.56V59.1441V55.2512L1031.86 54.9858L1024.07 54.7204L1023.81 43.042L1023.54 31.3636L1019.83 31.0982C1016.11 30.8328 1016.11 30.8328 1016.11 27.2938C1016.11 23.7549 1016.11 23.7549 1012.39 23.4895C1008.68 23.2241 1008.68 23.2241 1008.41 19.5082L1008.15 15.7924L996.469 15.527L984.791 15.2615L984.525 11.5457L984.26 7.82983L953.117 7.56441L921.886 7.38747V11.3687V15.35H909.943H897.999V19.3313V23.3126H894.018H890.036V27.2938V31.2751H886.055H882.074V39.2377V47.2002H870.13H858.186V51.27V55.2512L854.47 54.9858L850.666 54.7204L850.4 47.0233L850.135 39.3261L846.419 39.0607C842.703 38.7953 842.703 38.7953 842.615 35.2564C842.615 31.7175 842.526 31.7175 838.899 31.4521C835.36 31.1866 835.272 31.0982 835.006 27.4708L834.741 23.7549L823.062 23.4895L811.384 23.2241L811.119 19.5082L810.853 15.7924H787.408H763.963L763.697 19.5082L763.432 23.3126H756H748.568L748.303 19.5082L748.037 15.7924H724.592H701.147L700.881 19.5082L700.616 23.2241L688.938 23.4895L677.259 23.7549L676.994 27.4708C676.728 31.1866 676.728 31.1866 673.013 31.4521C669.297 31.7175 669.297 31.7175 669.208 35.2564C669.208 38.7953 669.12 38.7953 665.492 39.0607L661.865 39.3261L661.6 47.0233L661.334 54.7204L657.618 54.9858L653.814 55.2512V51.27V47.2002H641.87H629.926V39.2377V31.2751H625.945H621.964V27.2938V23.3126H617.982H614.001V19.3313V15.35H602.057H590.114V11.3687V7.38747L558.971 7.56441L527.74 7.82983L527.475 11.5457L527.209 15.2615L515.531 15.527L503.853 15.7924L503.587 19.5082C503.322 23.2241 503.322 23.2241 499.606 23.4895C495.89 23.7549 495.89 23.7549 495.802 27.2938C495.802 30.8328 495.713 30.8328 492.086 31.0982L488.458 31.3636L488.193 43.042L487.927 54.7204L480.23 54.9858L472.445 55.2512V59.1441V63.1253H464.482H456.52V59.1441V55.1628H448.557H440.595V51.1815V47.2002L424.935 47.3772L409.187 47.6426L409.098 51.1815V54.7204L401.401 54.9858L393.704 55.2512V51.1815V47.2002H385.741H377.779V43.2189V39.2377H361.854H345.929V43.2189V47.1117L338.231 47.3772L330.446 47.6426L330.18 51.3584C329.915 55.0743 329.915 55.0743 326.199 55.3397C322.483 55.6051 322.483 55.6051 322.395 59.1441C322.395 62.683 322.306 62.683 318.679 62.9484L314.963 63.2138V59.2325V55.1628H310.982H307.001V51.1815V47.2002H299.038H291.075V43.2189V39.2377H259.756H228.348L228.083 42.9535L227.817 46.7579L220.12 47.0233L212.335 47.2887V51.1815V55.1628H208.353H204.372V59.1441V63.1253H200.391H196.41V55.1628V47.2002H192.428H188.447V43.2189V39.2377H184.466H180.484V35.2564V31.2751H176.503H172.522V27.2938V23.3126H168.541H164.559V19.3313V15.35H156.508H148.457L148.811 11.5457L149.077 7.82983L137.398 7.56441L125.631 7.29899V3.84856C125.631 1.99062 125.366 0.309631 125.012 0.13269C124.57 -0.0442505 108.733 -0.0442505 89.6229 0.13269Z" fill="#1F1360"/>
</svg>
